<svg xmlns="http://www.w3.org/2000/svg" viewBox="0 0 100 100" width="100" height="100">
  <!-- Lure Kit -->
  <!-- Spoon Lure -->
  <ellipse cx="25" cy="25" rx="12" ry="6" fill="#f1c40f" stroke="#d4ac0d" stroke-width="1"/>
  <ellipse cx="25" cy="25" rx="8" ry="4" fill="#f39c12"/>
  <circle cx="15" cy="25" r="2" fill="#7f8c8d"/>
  <path d="M35 25 L38 23 L38 27 Z" fill="#c0392b"/>
  
  <!-- Crankbait -->
  <ellipse cx="70" cy="25" rx="15" ry="8" fill="#e74c3c" stroke="#c0392b" stroke-width="1"/>
  <circle cx="78" cy="23" r="3" fill="white"/>
  <circle cx="78" cy="23" r="1.5" fill="#2c3e50"/>
  <path d="M55 25 L52 22 L52 28 Z" fill="#f39c12"/>
  <circle cx="58" cy="30" r="1.5" fill="#7f8c8d"/>
  <circle cx="82" cy="30" r="1.5" fill="#7f8c8d"/>
  
  <!-- Soft Plastic Worm -->
  <path d="M15 55 Q25 50 35 55 Q45 60 55 55 Q65 50 75 55" stroke="#8e44ad" stroke-width="5" fill="none" stroke-linecap="round"/>
  <circle cx="15" cy="55" r="3" fill="#9b59b6"/>
  
  <!-- Spinner -->
  <circle cx="25" cy="80" r="8" fill="#f1c40f" stroke="#d4ac0d" stroke-width="1"/>
  <circle cx="25" cy="80" r="4" fill="#f39c12"/>
  <line x1="33" y1="80" x2="45" y2="80" stroke="#7f8c8d" stroke-width="2"/>
  <ellipse cx="50" cy="80" rx="5" ry="10" fill="#e74c3c" stroke="#c0392b"/>
  
  <!-- Jig Head -->
  <circle cx="75" cy="78" r="6" fill="#bdc3c7" stroke="#7f8c8d" stroke-width="1"/>
  <path d="M75 84 L75 90 Q72 95 78 95 Q81 92 75 90" stroke="#7f8c8d" stroke-width="1.5" fill="none"/>
  <path d="M69 78 Q60 85 55 82" stroke="#27ae60" stroke-width="3" fill="none" stroke-linecap="round"/>
  <path d="M57 80 Q52 88 48 85" stroke="#27ae60" stroke-width="2" fill="none" stroke-linecap="round"/>
</svg>
